<?xml version="1.0" encoding="utf-8"?>
<!-- Generator: Adobe Illustrator 17.1.0, SVG Export Plug-In . SVG Version: 6.00 Build 0)  -->
<!DOCTYPE svg PUBLIC "-//W3C//DTD SVG 1.1//EN" "http://www.w3.org/Graphics/SVG/1.1/DTD/svg11.dtd">
<svg version="1.1" xmlns="http://www.w3.org/2000/svg" xmlns:xlink="http://www.w3.org/1999/xlink" x="0px" y="0px"
	 viewBox="0 0 150 133" enable-background="new 0 0 150 133" xml:space="preserve">
<g id="Logo_Dark">
	<g id="Glyph">
	</g>
	<g id="Divshot_Text">
	</g>
</g>
<g id="Logo_Light">
	<g id="Outline">
	</g>
	<g id="Layer_7" opacity="0.6">
	</g>
	<g id="Divshot_Text_5_">
	</g>
</g>
<g id="Logo_Outline_Dark">
	<g id="Layer_44_copy">
	</g>
	<g id="Divshot_Text_1_">
	</g>
</g>
<g id="Logo_Outline_Light">
	<g id="Outline_2_">
	</g>
	<g id="Divshot_Text_2_">
	</g>
</g>
<g id="Logo_Text_Light">
	<g id="Divshot_Text_6_">
	</g>
</g>
<g id="Logo_Text_Dark">
	<g id="Divshot_Text_7_">
	</g>
</g>
<g id="Glyph_Quadrant">
	<g id="Light_Gradient">
	</g>
	<g id="Dark_Gradient">
		<g id="Layer_50">
		</g>
	</g>
	<g id="Dark_Outline">
	</g>
	<g id="Light_Outline">
	</g>
</g>
<g id="Logo_Vertical_Dark">
	<g id="Divshot_Text_8_">
	</g>
	<g id="Glyph_3_">
	</g>
</g>
<g id="Logo_Vertical_Light">
	<g id="Divshot_Text_3_">
	</g>
	<g id="Glyph_1_">
	</g>
</g>
<g id="Brand_Colors">
	<g id="White">
	</g>
	<g id="Dark_Grey">
	</g>
	<g id="Black">
	</g>
	<g id="Gold">
	</g>
</g>
<g id="Glyph_Dark">
	<g id="Layer_51">
		
			<linearGradient id="SVGID_1_" gradientUnits="userSpaceOnUse" x1="0" y1="-1824.662" x2="150" y2="-1824.662" gradientTransform="matrix(1 0 0 -1 0 -1758.162)">
			<stop  offset="0.0054" style="stop-color:#F5EA14"/>
			<stop  offset="1" style="stop-color:#F05B26"/>
		</linearGradient>
		<path fill="url(#SVGID_1_)" d="M49,0L0,67l49,66h26h25l50-66L100,0H75H49z M92,67L75,90L58,67l17-23L92,67z"/>
		<g>
			<g>
				
					<linearGradient id="SVGID_2_" gradientUnits="userSpaceOnUse" x1="26" y1="-1824.662" x2="91" y2="-1824.662" gradientTransform="matrix(1 0 0 -1 0 -1758.162)">
					<stop  offset="0.22" style="stop-color:#FFFF00"/>
					<stop  offset="1" style="stop-color:#FF8E00"/>
				</linearGradient>
				<polygon fill="url(#SVGID_2_)" points="75,0 91,23 58,67 91,112.162 74.5,133 26,67 				"/>
			</g>
			<g>
				
					<linearGradient id="SVGID_3_" gradientUnits="userSpaceOnUse" x1="59" y1="-1847.662" x2="118.0036" y2="-1847.662" gradientTransform="matrix(1 0 0 -1 0 -1758.162)">
					<stop  offset="0" style="stop-color:#FFFF00"/>
					<stop  offset="1" style="stop-color:#FF8E00"/>
				</linearGradient>
				<polygon fill="url(#SVGID_3_)" points="85,112 59,112 92,67 118.004,67 				"/>
			</g>
			<g>
				
					<linearGradient id="SVGID_4_" gradientUnits="userSpaceOnUse" x1="0" y1="-1858.162" x2="100" y2="-1858.162" gradientTransform="matrix(1 0 0 -1 0 -1758.162)">
					<stop  offset="0" style="stop-color:#FFFF00"/>
					<stop  offset="1" style="stop-color:#FF8E00"/>
				</linearGradient>
				<polygon opacity="0.7" fill="url(#SVGID_4_)" points="59,112 26,67 0,67 49,133 75,133 100,133 85,112 				"/>
				
					<linearGradient id="SVGID_5_" gradientUnits="userSpaceOnUse" x1="59" y1="-1802.662" x2="118" y2="-1802.662" gradientTransform="matrix(1 0 0 -1 0 -1758.162)">
					<stop  offset="0" style="stop-color:#FFFF00"/>
					<stop  offset="1" style="stop-color:#FF8E00"/>
				</linearGradient>
				<polygon opacity="0.3" fill="url(#SVGID_5_)" enable-background="new    " points="118,67 85,22 59,22 92,67 				"/>
				
					<linearGradient id="SVGID_6_" gradientUnits="userSpaceOnUse" x1="0" y1="-1791.662" x2="100" y2="-1791.662" gradientTransform="matrix(1 0 0 -1 0 -1758.162)">
					<stop  offset="0" style="stop-color:#FFFF00"/>
					<stop  offset="1" style="stop-color:#FF8E00"/>
				</linearGradient>
				<polygon fill="url(#SVGID_6_)" points="49,0 0,67 26,67 59,22 85,22 100,0 75,0 				"/>
			</g>
			<g>
				
					<linearGradient id="SVGID_7_" gradientUnits="userSpaceOnUse" x1="85" y1="-1824.662" x2="150" y2="-1824.662" gradientTransform="matrix(1 0 0 -1 0 -1758.162)">
					<stop  offset="0" style="stop-color:#FFFF00"/>
					<stop  offset="1" style="stop-color:#FF8E00"/>
				</linearGradient>
				<polygon fill="url(#SVGID_7_)" points="100,0 150,67 100,133 85,112 118.004,67 85,22 				"/>
			</g>
		</g>
	</g>
</g>
<g id="Glyph_Light">
</g>
<g id="Glyph_Dark_Outline">
</g>
<g id="Glyph_Light_Outline">
</g>
<g id="Logo_Vertical_Outline_Dark">
	<g id="Divshot_Text_4_">
	</g>
	<g id="Layer_48">
	</g>
</g>
<g id="Divshot_Vertical_Outline_Light">
	<g id="Divshot_Text_9_">
	</g>
	<g id="Glyph_2_">
	</g>
</g>
</svg>
