<?xml version="1.0" encoding="utf-8"?>
<!-- Generator: Adobe Illustrator 15.1.0, SVG Export Plug-In  -->
<!DOCTYPE svg PUBLIC "-//W3C//DTD SVG 1.1//EN" "http://www.w3.org/Graphics/SVG/1.1/DTD/svg11.dtd" [
	<!ENTITY ns_flows "http://ns.adobe.com/Flows/1.0/">
]>
<svg version="1.1"
	 xmlns="http://www.w3.org/2000/svg" xmlns:xlink="http://www.w3.org/1999/xlink" xmlns:a="http://ns.adobe.com/AdobeSVGViewerExtensions/3.0/"
	 x="0px" y="0px" width="452px" height="116px" viewBox="-0.174 -0.304 452 116"
	 overflow="visible" enable-background="new -0.174 -0.304 452 116" xml:space="preserve">
<defs>
</defs>
<polygon fill="#333333" points="37.933,115.393 22.657,100.116 63.89,58.882 20.289,15.276 35.567,0 94.443,58.882 "/>
<polygon fill="#3FA9F5" points="27.457,84.633 0,57.154 26.397,30.76 35.692,40.058 18.59,57.16 36.757,75.339 "/>
<path display="none" fill="#333333" d="M114.524,84.657V30.655h22.668c17.003,0,29.228,10.202,29.228,26.96
	c0,16.761-12.225,27.042-29.146,27.042H114.524z M152.171,57.615c0-8.338-5.021-14.815-14.897-14.815h-8.824v29.713h8.743
	C146.666,72.513,152.171,65.63,152.171,57.615z"/>
<path display="none" fill="#333333" d="M173.388,84.657V30.655h13.927v54.002H173.388z"/>
<path display="none" fill="#333333" d="M211.604,84.657l-20.321-54.002h15.788l13.358,38.943l13.278-38.943h15.788l-20.322,54.002
	H211.604z"/>
<path display="none" fill="#333333" d="M249.58,77.046l7.368-10.85c3.886,3.887,9.879,7.127,17.326,7.127
	c4.695,0,7.611-1.621,7.611-4.293c0-7.125-30.523-1.213-30.523-22.021c0-9.068,7.61-17.163,21.455-17.163
	c8.663,0,16.192,2.591,21.94,7.529l-7.611,10.444c-4.532-3.807-10.442-5.668-15.786-5.668c-4.049,0-5.829,1.377-5.829,3.725
	c0,6.639,30.521,1.619,30.521,21.696c0,10.85-8.015,18.055-22.506,18.055C262.616,85.628,255.005,82.147,249.58,77.046z"/>
<path display="none" fill="#333333" d="M338.886,84.657V62.96h-22.427v21.697h-13.924V30.655h13.924v20.16h22.427v-20.16h13.926
	v54.002H338.886z"/>
<path display="none" fill="#333333" d="M359.781,57.697c0-16.436,12.388-27.933,28.903-27.933c16.517,0,28.823,11.497,28.823,27.933
	c0,16.435-12.307,27.931-28.823,27.931C372.169,85.628,359.781,74.132,359.781,57.697z M403.34,57.697
	c0-8.825-5.749-15.626-14.655-15.626c-8.905,0-14.734,6.801-14.734,15.626c0,8.743,5.829,15.626,14.734,15.626
	C397.591,73.323,403.34,66.44,403.34,57.697z"/>
<path display="none" fill="#333333" d="M434.84,84.657V42.8H419.7V30.655h44.123V42.8h-15.059v41.857H434.84z"/>
<path fill="#333333" d="M114.384,84.663V30.641h22.679c17.008,0,29.238,10.205,29.238,26.971c0,16.766-12.23,27.051-29.158,27.051
	H114.384z M152.046,57.612c0-8.343-5.021-14.822-14.903-14.822h-8.828v29.725h8.748C146.539,72.515,152.046,65.63,152.046,57.612z"
	/>
<path fill="#333333" d="M171.245,84.663V30.641h13.931v54.022H171.245z"/>
<path fill="#333333" d="M207.45,84.663l-20.33-54.022h15.794l13.363,38.958l13.283-38.958h15.794l-20.33,54.022H207.45z"/>
<path fill="#333333" d="M243.415,77.05l7.371-10.854c3.888,3.889,9.881,7.129,17.332,7.129c4.698,0,7.613-1.621,7.613-4.293
	c0-7.127-30.534-1.215-30.534-22.031c0-9.071,7.613-17.171,21.463-17.171c8.667,0,16.199,2.592,21.949,7.532l-7.613,10.448
	c-4.535-3.807-10.448-5.669-15.794-5.669c-4.049,0-5.831,1.377-5.831,3.726c0,6.642,30.534,1.62,30.534,21.706
	c0,10.854-8.018,18.062-22.516,18.062C256.455,85.636,248.842,82.153,243.415,77.05z"/>
<path fill="#333333" d="M330.729,84.663V62.958h-22.435v21.705h-13.932V30.641h13.932v20.167h22.435V30.641h13.931v54.022H330.729z"
	/>
<path fill="#333333" d="M349.604,57.693c0-16.441,12.393-27.943,28.915-27.943s28.834,11.502,28.834,27.943
	c0,16.441-12.312,27.943-28.834,27.943S349.604,74.134,349.604,57.693z M393.18,57.693c0-8.828-5.751-15.632-14.66-15.632
	s-14.741,6.804-14.741,15.632c0,8.748,5.832,15.632,14.741,15.632S393.18,66.44,393.18,57.693z"/>
<path fill="#333333" d="M422.666,84.663V42.79h-15.146V30.641h44.142V42.79h-15.065v41.874H422.666z"/>
</svg>
